<svg width="58" height="59" viewBox="0 0 58 59" fill="none" xmlns="http://www.w3.org/2000/svg">
<rect width="58" height="59" rx="10" fill="white"/>
<circle cx="15.5" cy="13.5" r="5.5" fill="black"/>
<circle cx="15.5" cy="29.5" r="5.5" fill="black"/>
<circle cx="15.5" cy="45.5" r="5.5" fill="black"/>
<path d="M28.644 9.716C28.868 9.764 28.98 9.876 28.98 10.052L28.908 10.58V10.736C28.908 11.088 28.948 11.46 29.028 11.852H29.052C29.98 11.572 30.556 11.432 30.78 11.432C31.012 11.496 31.128 11.612 31.128 11.78C31.128 12.052 30.852 12.188 30.3 12.188L29.052 12.632C29.052 13.712 29.168 15.18 29.4 17.036C29.352 17.252 29.236 17.36 29.052 17.36H29.028C28.748 17.36 28.608 17 28.608 16.28C28.504 15.744 28.416 14.58 28.344 12.788H28.128C27.376 12.74 27 12.564 27 12.26C27 12.172 27.084 12.064 27.252 11.936H27.372L27.924 12.08H28.308L28.2 10.58C28.2 10.004 28.348 9.716 28.644 9.716ZM33.4136 12.476C34.0056 12.476 34.4536 12.916 34.7576 13.796L34.8056 14.048C34.8056 14.904 34.4056 15.78 33.6056 16.676C33.2856 16.972 32.9616 17.12 32.6336 17.12C32.1536 17.12 31.8136 16.844 31.6136 16.292C31.5416 16.036 31.5056 15.812 31.5056 15.62V15.476C31.5056 14.212 31.9656 13.252 32.8856 12.596C33.0456 12.516 33.2216 12.476 33.4136 12.476ZM32.2136 15.596C32.2136 16.14 32.3536 16.412 32.6336 16.412C33.2176 16.412 33.7016 15.664 34.0856 14.168V13.94C33.9496 13.444 33.6976 13.196 33.3296 13.196C33.1856 13.196 33.1136 13.296 33.1136 13.496C33.1136 13.632 32.9536 13.74 32.6336 13.82C32.3536 14.292 32.2136 14.884 32.2136 15.596Z" fill="black"/>
<path d="M30.048 25.412C30.184 25.412 30.308 25.54 30.42 25.796L29.892 29.132V30.068C29.892 31.044 30.044 31.532 30.348 31.532C30.548 31.628 30.648 31.756 30.648 31.916C30.648 32.1 30.488 32.208 30.168 32.24C29.816 32.24 29.54 31.916 29.34 31.268H29.22C28.924 31.916 28.564 32.24 28.14 32.24C27.644 32.24 27.344 31.864 27.24 31.112C27.24 30.24 27.824 29.316 28.992 28.34C29.224 28.34 29.34 28.016 29.34 27.368C29.516 26.064 29.752 25.412 30.048 25.412ZM27.948 31.016V31.34L28.14 31.532H28.212C28.468 31.532 28.768 30.76 29.112 29.216H29.04C28.312 29.944 27.948 30.544 27.948 31.016ZM32.9918 27.476C33.5838 27.476 34.0318 27.916 34.3358 28.796L34.3838 29.048C34.3838 29.904 33.9838 30.78 33.1838 31.676C32.8638 31.972 32.5398 32.12 32.2118 32.12C31.7318 32.12 31.3918 31.844 31.1918 31.292C31.1198 31.036 31.0838 30.812 31.0838 30.62V30.476C31.0838 29.212 31.5438 28.252 32.4638 27.596C32.6238 27.516 32.7998 27.476 32.9918 27.476ZM31.7918 30.596C31.7918 31.14 31.9318 31.412 32.2118 31.412C32.7958 31.412 33.2798 30.664 33.6638 29.168V28.94C33.5278 28.444 33.2758 28.196 32.9078 28.196C32.7638 28.196 32.6918 28.296 32.6918 28.496C32.6918 28.632 32.5318 28.74 32.2118 28.82C31.9318 29.292 31.7918 29.884 31.7918 30.596Z" fill="black"/>
<path d="M27.912 41.388C28.136 41.468 28.248 41.592 28.248 41.76L28.368 46.332V47.808C28.368 48.08 28.252 48.216 28.02 48.216H27.864C27.72 48.12 27.648 48.008 27.648 47.88V46.488L27.54 41.736C27.54 41.536 27.664 41.42 27.912 41.388ZM29.3759 41.748C29.6799 41.812 29.8319 41.948 29.8319 42.156C29.7519 42.38 29.6239 42.492 29.4479 42.492C29.1519 42.436 29.0039 42.288 29.0039 42.048C29.0839 41.848 29.2079 41.748 29.3759 41.748ZM29.8319 43.428C29.9599 43.428 30.0679 43.544 30.1559 43.776L30.0479 44.628V45.192C30.0479 45.848 30.1599 46.708 30.3839 47.772C30.3039 47.924 30.1679 48 29.9759 48C29.6479 48 29.4319 47.04 29.3279 45.12V44.7C29.3279 43.852 29.4959 43.428 29.8319 43.428ZM33.4134 43.14C33.6294 43.14 33.7774 43.504 33.8574 44.232C33.7774 44.432 33.6454 44.532 33.4614 44.532C33.3334 44.508 33.2054 44.36 33.0774 44.088L32.8614 44.016C32.4854 44.016 32.1454 44.264 31.8414 44.76V44.868C31.8414 44.988 32.4054 45.188 33.5334 45.468C34.0054 45.748 34.2414 46.088 34.2414 46.488C34.2414 47.144 33.7134 47.704 32.6574 48.168L32.2134 48.24C31.5414 48.168 31.2054 47.832 31.2054 47.232V47.196C31.2054 47.004 31.3294 46.892 31.5774 46.86C31.7694 46.86 31.8974 47.06 31.9614 47.46L32.0574 47.532H32.2614C32.7174 47.532 33.1414 47.22 33.5334 46.596V46.44C33.5334 46.2 33.0094 45.976 31.9614 45.768C31.4094 45.544 31.1334 45.232 31.1334 44.832C31.1334 44.312 31.5694 43.824 32.4414 43.368C32.8254 43.32 33.1494 43.244 33.4134 43.14ZM36.0971 40.716C36.3211 40.764 36.4331 40.876 36.4331 41.052L36.3611 41.58V41.736C36.3611 42.088 36.4011 42.46 36.4811 42.852H36.5051C37.4331 42.572 38.0091 42.432 38.2331 42.432C38.4651 42.496 38.5811 42.612 38.5811 42.78C38.5811 43.052 38.3051 43.188 37.7531 43.188L36.5051 43.632C36.5051 44.712 36.6211 46.18 36.8531 48.036C36.8051 48.252 36.6891 48.36 36.5051 48.36H36.4811C36.2011 48.36 36.0611 48 36.0611 47.28C35.9571 46.744 35.8691 45.58 35.7971 43.788H35.5811C34.8291 43.74 34.4531 43.564 34.4531 43.26C34.4531 43.172 34.5371 43.064 34.7051 42.936H34.8251L35.3771 43.08H35.7611L35.6531 41.58C35.6531 41.004 35.8011 40.716 36.0971 40.716Z" fill="black"/>
</svg>
