<svg xmlns="http://www.w3.org/2000/svg" aria-hidden="true" style="position:absolute;width:0;height:0;overflow:hidden"><defs><symbol id="icon-radio-icon-checked" viewBox="0 0 32 32"><path d="M0 0h32v32H0V0z" style=""/><path stroke="#8f8f8f" stroke-width="2.462" d="M30.769 16c0 8.157-6.612 14.769-14.769 14.769S1.231 24.157 1.231 16 7.843 1.231 16 1.231 30.769 7.843 30.769 16z" style=""/><path stroke="#fff" stroke-linecap="round" stroke-linejoin="round" stroke-width="2.462" d="m10.911 17.241 3.953 3.521 7.786-9.063" style="stroke:var(--color1, #fff)"/></symbol><symbol id="icon-radio-icon" viewBox="0 0 32 32"><path  stroke-width="2.462" d="M30.769 16c0 8.157-6.612 14.769-14.769 14.769S1.231 24.157 1.231 16 7.843 1.231 16 1.231 30.769 7.843 30.769 16z" /></symbol><symbol id="icon-trash-icon" viewBox="0 0 32 32"><path d="M26.154 9.077a1.384 1.384 0 0 0-1.385-1.385h-3.486a4.15 4.15 0 0 0-3.899-2.769h-2.769a4.15 4.15 0 0 0-3.899 2.769H7.23a1.384 1.384 0 0 0-1.385 1.385 1.384 1.384 0 0 0 1.385 1.385h.462V22a5.078 5.078 0 0 0 5.077 5.077h6.462A5.078 5.078 0 0 0 24.308 22V10.462h.462a1.384 1.384 0 0 0 1.385-1.385zM21.538 22a2.308 2.308 0 0 1-2.308 2.308h-6.462A2.308 2.308 0 0 1 10.46 22V10.462h11.077V22z"/><path d="M13.692 21.538a1.384 1.384 0 0 0 1.385-1.385v-5.538a1.384 1.384 0 0 0-2.77 0v5.538a1.384 1.384 0 0 0 1.385 1.385zM18.308 21.538a1.384 1.384 0 0 0 1.385-1.385v-5.538a1.384 1.384 0 0 0-2.77 0v5.538a1.384 1.384 0 0 0 1.385 1.385z"/></symbol></defs></svg>